<svg xmlns="http://www.w3.org/2000/svg" viewBox="0 0 128 128" width="128" height="128">
  <defs>
    <linearGradient id="bgGradient" x1="0%" y1="0%" x2="100%" y2="100%">
      <stop offset="0%" style="stop-color:#007bff;stop-opacity:1" />
      <stop offset="100%" style="stop-color:#0056b3;stop-opacity:1" />
    </linearGradient>
    <linearGradient id="sparkleGradient" x1="0%" y1="0%" x2="100%" y2="100%">
      <stop offset="0%" style="stop-color:#ffffff;stop-opacity:0.9" />
      <stop offset="100%" style="stop-color:#e3f2fd;stop-opacity:0.7" />
    </linearGradient>
  </defs>
  
  <!-- Background circle -->
  <circle cx="64" cy="64" r="60" fill="url(#bgGradient)"/>
  
  <!-- Document/Resume -->
  <rect x="32" y="28" width="40" height="52" rx="3" fill="white" opacity="0.95"/>
  <path d="M 54 28 L 54 38 L 64 38" fill="none" stroke="#007bff" stroke-width="2" stroke-linecap="round" stroke-linejoin="round"/>
  
  <!-- Document lines (content) -->
  <line x1="38" y1="46" x2="66" y2="46" stroke="#cbd5e0" stroke-width="1.5" stroke-linecap="round"/>
  <line x1="38" y1="52" x2="66" y2="52" stroke="#cbd5e0" stroke-width="1.5" stroke-linecap="round"/>
  <line x1="38" y1="58" x2="58" y2="58" stroke="#cbd5e0" stroke-width="1.5" stroke-linecap="round"/>
  <line x1="38" y1="64" x2="66" y2="64" stroke="#cbd5e0" stroke-width="1.5" stroke-linecap="round"/>
  
  <!-- Automation sparkle/magic element -->
  <g opacity="0.95">
    <path d="M 80 36 L 82 42 L 88 40 L 82 44 L 80 50 L 78 44 L 72 40 L 78 42 Z" fill="url(#sparkleGradient)"/>
    <circle cx="80" cy="40" r="2" fill="white"/>
  </g>
  
  <!-- Additional sparkle -->
  <circle cx="88" cy="56" r="3" fill="white" opacity="0.8"/>
  <circle cx="88" cy="56" r="1.5" fill="#007bff" opacity="0.6"/>
  
  <!-- Arrow/automation indicator -->
  <path d="M 72 70 L 88 70 L 82 64 M 88 70 L 82 76" stroke="white" stroke-width="2.5" stroke-linecap="round" stroke-linejoin="round" fill="none"/>
</svg>

